HIERARCHY
ROOT root
{
	OFFSET 0.000000 0.000000 0.000000
	CHANNELS 6 Xposition Yposition Zposition Zrotation Yrotation Xrotation
	JOINT lhip
	{
		OFFSET 0.058581 -0.082280 -0.017664
		CHANNELS 3 Zrotation Yrotation Xrotation
		JOINT lknee
		{
			OFFSET 0.043451 -0.386469 0.008037
			CHANNELS 3 Zrotation Yrotation Xrotation
			JOINT lankle
			{
				OFFSET -0.014790 -0.426874 -0.037428
				CHANNELS 3 Zrotation Yrotation Xrotation
				JOINT ltoe
				{
					OFFSET 0.041054 -0.060286 0.122042
					CHANNELS 3 Zrotation Yrotation Xrotation
					End Site
					{
						OFFSET 0.000000 0.000000 0.000000
					}
				}
			}
		}
	}
	JOINT rhip
	{
		OFFSET -0.060310 -0.090513 -0.013543
		CHANNELS 3 Zrotation Yrotation Xrotation
		JOINT rknee
		{
			OFFSET -0.043257 -0.383688 -0.004843
			CHANNELS 3 Zrotation Yrotation Xrotation
			JOINT rankle
			{
				OFFSET 0.019056 -0.420046 -0.034562
				CHANNELS 3 Zrotation Yrotation Xrotation
				JOINT rtoe
				{
					OFFSET -0.034840 -0.062106 0.130323
					CHANNELS 3 Zrotation Yrotation Xrotation
					End Site
					{
						OFFSET 0.000000 0.000000 0.000000
					}
				}
			}
		}
	}
	JOINT lowerback
	{
		OFFSET 0.004439 0.124404 -0.038385
		CHANNELS 3 Zrotation Yrotation Xrotation
		JOINT upperback
		{
			OFFSET 0.004488 0.137956 0.026820
			CHANNELS 3 Zrotation Yrotation Xrotation
			JOINT chest
			{
				OFFSET -0.002265 0.056032 0.002855
				CHANNELS 3 Zrotation Yrotation Xrotation
				JOINT lowerneck
				{
					OFFSET -0.013390 0.211636 -0.033468
					CHANNELS 3 Zrotation Yrotation Xrotation
					JOINT upperneck
					{
						OFFSET 0.010113 0.088937 0.050410
						CHANNELS 3 Zrotation Yrotation Xrotation
						End Site
						{
							OFFSET 0.000000 0.000000 0.000000
						}
					}
				}
				JOINT lclavicle
				{
					OFFSET 0.071702 0.114000 -0.018898
					CHANNELS 3 Zrotation Yrotation Xrotation
					JOINT lshoulder
					{
						OFFSET 0.122921 0.045205 -0.019046
						CHANNELS 3 Zrotation Yrotation Xrotation
						JOINT lelbow
						{
							OFFSET 0.255332 -0.015649 -0.022946
							CHANNELS 3 Zrotation Yrotation Xrotation
							JOINT lwrist
							{
								OFFSET 0.265709 0.012698 -0.007375
								CHANNELS 3 Zrotation Yrotation Xrotation
								End Site
								{
									OFFSET 0.000000 0.000000 0.000000
								}
							}
						}
					}
				}
				JOINT rclavicle
				{
					OFFSET -0.082954 0.112472 -0.023707
					CHANNELS 3 Zrotation Yrotation Xrotation
					JOINT rshoulder
					{
						OFFSET -0.113228 0.046853 -0.008472
						CHANNELS 3 Zrotation Yrotation Xrotation
						JOINT relbow
						{
							OFFSET -0.260127 -0.014369 -0.031269
							CHANNELS 3 Zrotation Yrotation Xrotation
							JOINT rwrist
							{
								OFFSET -0.269108 0.006794 -0.006027
								CHANNELS 3 Zrotation Yrotation Xrotation
								End Site
								{
									OFFSET 0.000000 0.000000 0.000000
								}
							}
						}
					}
				}
			}
		}
	}
}
MOTION
Frames: 16
Frame Time: 0.033333
-0.445030 1.592953 0.962635 92.298040 -0.988934 86.825228 -0.215528 1.704367 18.380296 -6.091192 -17.051671 14.939062 -3.906464 4.348011 -7.578426 0.000000 -0.000000 0.000000 1.566804 3.231323 -17.710884 0.304897 2.650674 8.743740 -2.440038 -4.640182 0.669055 0.000000 -0.000000 0.000000 -3.218786 -5.015593 4.643943 4.459231 -5.695727 15.161289 -1.293990 -3.347143 -6.880854 -0.341803 -22.388640 -2.989571 6.964934 -28.014973 -0.041864 -30.579508 -2.018973 3.591878 -47.048823 -10.027974 12.247290 13.531448 -25.669495 -9.719627 -6.617545 -6.836882 13.699352 35.725583 6.301640 1.624323 47.978706 -4.477291 14.235861 -7.654309 20.853504 5.396870 9.702532 5.206137 18.285199 
-0.403030 1.588469 0.964647 92.398736 0.026830 86.484144 0.705732 0.760478 16.576865 -7.266520 -15.499177 22.808985 -5.922321 3.532241 -3.340162 0.000000 -0.000000 0.000000 3.385604 4.323656 -17.242406 0.552884 3.218671 13.709599 -6.411511 -5.038185 -0.736246 0.000000 -0.000000 0.000000 -1.789347 -5.227464 3.835655 4.477263 -5.357809 15.169162 -1.821505 -3.229024 -6.823655 -0.028515 -22.563265 -2.894112 5.757402 -28.698801 1.611708 -31.621652 -1.797579 3.296304 -46.376184 -10.456540 12.635751 13.683658 -26.236698 -9.620221 -6.331182 -7.620218 13.657152 36.665230 7.068667 0.944847 45.796347 -2.688939 14.346974 -7.777200 19.686736 4.108764 8.745608 5.828044 18.784163 
-0.362068 1.584551 0.968870 92.656587 0.557798 85.223642 1.595521 -0.185059 14.216251 -9.084347 -12.969258 31.621848 -8.882866 2.905535 2.422070 0.000000 -0.000000 0.000000 4.093541 5.344899 -14.809420 1.327462 1.709025 16.896383 -8.167230 -5.721137 -4.127511 0.000000 -0.000000 0.000000 -1.634074 -5.127767 4.243334 4.470440 -5.346192 14.945511 -1.468325 -2.946127 -6.626438 0.385961 -22.204943 -2.039075 4.689303 -29.025808 2.310663 -31.570299 -2.158184 3.818191 -47.444834 -10.723997 11.900559 14.113093 -26.844627 -9.566968 -5.831828 -6.550724 12.249829 36.080107 8.933976 1.196940 45.551791 -0.341861 13.387705 -8.742527 17.529498 1.941607 7.236148 5.684259 17.990125 
-0.316168 1.579577 0.972992 93.144699 0.654157 84.518962 2.365972 -1.563169 8.256389 -11.541458 -9.787019 43.721190 -12.206509 2.016570 7.910402 0.000000 -0.000000 0.000000 5.270393 5.121302 -11.700473 1.282642 2.429406 18.564760 -10.315849 -6.512822 -7.030880 0.000000 -0.000000 0.000000 -2.028412 -3.596499 4.254853 4.332930 -5.756810 14.652696 -1.063115 -2.866315 -6.752032 1.205325 -21.571624 -1.132142 3.906498 -29.528295 3.818650 -30.445978 -3.570532 5.102317 -49.239871 -11.192624 11.508049 14.819393 -27.219659 -10.214777 -6.345544 -6.384601 10.550674 35.214990 11.434023 2.047536 45.783070 2.446794 12.118073 -10.634583 15.036466 -1.049361 7.312463 5.092143 16.373439 
-0.291369 1.576722 0.975347 93.189458 0.748025 84.372639 2.771707 -1.153811 3.953258 -11.571461 -7.684372 50.538088 -11.878273 2.855220 6.683706 0.000000 -0.000000 0.000000 6.097085 4.628273 -9.717238 0.882457 2.213899 17.783698 -11.284252 -6.915996 -8.716369 0.000000 -0.000000 0.000000 -2.109334 -2.484533 4.118848 4.356854 -5.810568 15.039937 -1.041916 -2.799005 -7.090628 1.711998 -21.797980 -0.894384 4.005183 -29.942244 3.949794 -30.355432 -4.504857 5.113273 -49.345913 -11.232848 11.809724 14.755738 -27.708942 -10.426492 -7.248082 -5.841141 10.454984 34.739417 12.948400 1.974327 45.439080 3.755240 11.525199 -11.290704 14.489011 -2.586877 7.615505 4.581865 15.864627 
-0.258867 1.573520 0.978804 91.777164 0.455400 84.015076 2.741796 -1.383454 -0.712910 -10.038703 -3.142917 55.858027 -9.450953 4.731089 1.367025 0.000000 -0.000000 0.000000 6.595764 3.964435 -6.910965 0.707002 3.124686 17.208872 -10.954706 -6.794482 -10.175252 0.000000 -0.000000 0.000000 -2.008830 -0.673461 4.764812 3.878105 -5.304111 14.481120 -1.587393 -2.031182 -7.276565 2.435327 -22.152171 -0.942804 3.894760 -30.041527 4.966205 -30.209678 -4.681824 4.563316 -48.933488 -11.385865 12.402704 13.623156 -28.894409 -8.178709 -7.512467 -5.744865 10.709645 34.198781 14.084575 2.029545 45.050032 6.272509 10.990341 -11.439171 13.687575 -3.842698 6.956974 4.677776 14.971678 
-0.226631 1.571313 0.983385 89.448374 -0.149386 83.456589 2.937204 -1.606147 -4.432299 -8.268564 2.041267 58.512505 -7.208907 7.251049 -3.903849 0.000000 -0.000000 0.000000 6.573687 3.689166 -3.464332 0.838065 5.902545 16.555545 -10.853748 -5.947496 -10.105541 0.000000 -0.000000 0.000000 -1.864338 1.388170 4.896142 3.165612 -4.604614 15.116192 -2.336792 -1.245775 -7.718123 2.969916 -22.443772 -0.699939 3.800062 -30.381551 5.537379 -30.559523 -4.995994 4.710898 -48.172964 -11.391615 12.131480 13.775267 -30.436619 -7.088546 -7.835223 -6.214769 11.746156 33.623880 15.511354 2.755259 44.257652 8.165391 10.897544 -11.501924 15.131653 -4.087951 6.447398 4.944497 14.467377 
-0.196971 1.569623 0.989109 87.219935 -0.739477 83.517473 3.145519 -1.433203 -8.599560 -7.523372 4.656802 58.514662 -5.327447 8.976742 -7.543300 0.000000 -0.000000 0.000000 6.132379 2.898630 -1.167918 -0.101508 7.700660 14.839092 -9.910945 -3.258607 -9.599552 0.000000 -0.000000 0.000000 -1.655802 3.126512 5.266795 2.531391 -4.080269 14.914628 -3.101748 -0.546036 -8.128387 2.954321 -23.033699 -0.545064 4.042852 -29.705393 5.958064 -30.658730 -4.566079 4.097764 -47.964933 -10.327677 12.543560 14.062350 -32.425353 -6.010566 -7.177258 -6.665515 11.818580 32.892819 16.256608 2.752654 43.666534 10.235641 10.807420 -11.234774 16.671016 -3.922378 6.069926 5.421709 14.611026 
-0.168389 1.568600 0.993780 85.156845 -1.388839 83.623284 3.197509 -1.737882 -12.078507 -6.675775 6.723882 55.641845 -3.717200 9.907672 -9.732375 0.000000 -0.000000 0.000000 5.161748 2.529578 1.486599 1.056951 7.685360 13.446753 -8.043809 -4.396366 -11.105237 0.000000 -0.000000 0.000000 -1.654134 4.360289 5.755453 1.680236 -3.416592 14.221832 -3.398093 0.014292 -7.687088 2.857421 -22.989813 -1.001319 3.780199 -29.503977 6.879849 -30.176184 -3.901241 4.028768 -48.696531 -9.535391 12.271698 14.726420 -34.035191 -6.002093 -7.146044 -6.590803 10.683775 31.639945 17.052304 2.489886 43.757799 12.300790 11.024479 -11.533253 19.067317 -3.789606 5.324453 5.771635 14.401335 
-0.131726 1.567468 0.999551 82.912928 -1.709797 83.650264 3.339721 -2.368278 -14.633152 -5.276023 7.470976 47.643378 -1.842173 11.198927 -9.104401 0.000000 -0.000000 0.000000 4.389952 1.375154 4.793733 1.068985 9.701399 11.638759 -7.138109 -3.157400 -11.105403 0.000000 -0.000000 0.000000 -1.188108 5.892275 6.638461 0.775238 -3.289909 13.685120 -3.701964 0.650370 -7.718676 2.435085 -23.548846 -1.120714 3.866108 -28.284855 7.026859 -30.112182 -3.372785 3.996574 -49.446708 -7.857802 11.835728 15.801083 -35.057116 -6.709857 -6.829274 -6.264421 8.624119 30.629857 17.683825 2.566946 43.277301 14.407064 11.376880 -11.795222 23.079084 -3.674630 4.813089 6.323100 13.592914 
-0.103876 1.567019 1.002998 80.968348 -1.917389 84.027833 3.539593 -2.789458 -16.205324 -4.527827 7.272259 39.452930 -0.264939 12.035159 -8.606887 0.000000 -0.000000 0.000000 3.679329 1.119358 6.638221 1.206774 10.921388 10.646701 -6.340244 -2.241345 -10.878537 0.000000 -0.000000 0.000000 -0.997915 6.947301 7.172226 0.265528 -2.992892 13.224086 -3.761961 0.899501 -7.645339 1.852512 -23.603751 -1.305621 4.121164 -27.405316 6.959494 -30.070060 -2.969103 3.676949 -49.977167 -6.505168 11.933411 16.403725 -34.906164 -7.123819 -5.535320 -6.902492 7.538973 30.051531 17.845683 2.275077 43.035054 15.960381 11.697237 -12.215134 26.817716 -3.848782 3.797309 7.164159 13.057246 
-0.074831 1.566663 1.005356 79.592692 -1.693567 84.413229 3.810017 -2.535944 -16.786208 -3.537321 5.861512 29.895919 0.272174 11.988311 -8.346057 0.000000 -0.000000 0.000000 3.454438 0.827459 8.751780 1.181825 11.684990 9.422590 -5.332584 -1.874541 -10.562073 0.000000 -0.000000 0.000000 -0.585464 7.429114 7.190696 -0.058988 -2.932375 13.239383 -3.885039 1.166705 -7.534981 1.675580 -23.488493 -1.859734 4.020644 -26.696639 7.286975 -30.246496 -2.580554 3.426640 -50.229583 -5.067588 11.870812 16.283194 -34.092285 -6.557105 -6.134284 -6.383078 6.995283 29.753188 17.797834 2.151964 42.792705 17.141984 11.923141 -12.738318 30.936740 -3.681543 3.714520 7.772901 12.564886 
-0.045287 1.566022 1.005009 78.610534 -1.116220 85.299796 4.189245 -1.790389 -17.495282 -2.392741 3.969879 19.470275 0.938398 10.987361 -4.847310 0.000000 -0.000000 0.000000 3.511307 0.437512 10.206234 1.086677 12.566708 8.361026 -4.707301 -1.449608 -10.205516 0.000000 -0.000000 0.000000 0.057428 7.653336 6.672734 -0.264910 -3.050369 13.188709 -3.996878 1.383644 -7.395119 1.630271 -23.190216 -2.716620 3.729532 -25.966182 7.241548 -30.192025 -2.162727 3.056585 -50.674784 -3.669788 12.236858 15.985818 -32.572627 -5.678682 -6.300240 -6.238610 6.772578 29.328188 17.421239 2.035111 43.018325 18.037829 12.527751 -13.491718 35.010089 -3.663261 3.398287 8.162442 11.756266 
-0.014327 1.566318 1.003704 77.317457 -0.778176 86.084823 4.338146 -1.062953 -17.249512 -1.795114 1.685812 9.316308 -0.164502 9.569812 -4.700456 0.000000 -0.000000 0.000000 2.912079 0.133916 11.808741 1.331233 13.426391 7.358640 -3.743703 -0.688603 -9.620429 0.000000 -0.000000 0.000000 0.321765 7.802866 6.081427 -0.424712 -3.029699 13.388168 -4.077247 1.771304 -7.477991 1.335558 -22.922435 -3.216560 3.831339 -25.464079 7.313828 -30.489806 -2.059441 3.112323 -50.667101 -2.302656 12.235545 15.144250 -30.428473 -4.913153 -6.500802 -5.833925 6.804391 29.377573 17.160522 1.982356 43.231443 18.337820 12.830129 -14.342127 38.559971 -3.562168 2.774794 8.659065 11.486063 
0.019008 1.566536 1.000628 76.098569 -0.754659 86.594624 4.378444 -0.970846 -16.428959 -1.599542 -0.656361 1.148362 0.087415 7.705840 -4.724804 0.000000 -0.000000 0.000000 1.692979 -0.248146 13.461923 1.710324 13.634277 6.954466 -1.803942 0.118417 -9.651655 0.000000 -0.000000 0.000000 0.255804 7.845335 5.588367 -0.650242 -2.998161 13.162774 -4.071747 1.698279 -6.966463 1.241940 -22.160964 -3.887879 3.744976 -24.908420 7.584582 -30.781147 -1.506126 3.193408 -50.661261 -0.979737 11.716864 14.772582 -28.421099 -3.361285 -5.794819 -5.598293 7.376637 29.575614 16.631754 2.217836 43.702379 18.893971 13.304788 -14.484921 41.744521 -2.828571 2.093128 9.142292 11.278046 
0.054281 1.567428 0.996647 75.298286 -0.616481 86.799856 4.244189 -1.235893 -16.326628 -1.308905 -0.493349 -0.966564 -0.551835 7.081916 -4.627455 0.000000 -0.000000 0.000000 1.020077 -0.096069 15.057769 1.945418 14.347159 7.476449 -0.243359 0.529810 -9.120667 0.000000 -0.000000 0.000000 0.284987 7.978678 5.109600 -0.760659 -3.266400 13.209832 -4.054919 1.749905 -6.690621 1.007472 -21.548817 -4.119090 3.829943 -24.851542 7.520517 -31.124456 -1.370823 3.258624 -50.705512 0.083321 11.268210 13.819100 -24.946335 -2.742712 -5.978044 -5.391989 6.857066 29.795569 15.824618 2.066161 44.354433 18.450746 13.957764 -14.312179 44.148340 -2.111529 1.600737 9.520219 11.557264 
